<mxfile host="app.diagrams.net" modified="2021-01-31T11:36:31.757Z" agent="5.0 (Windows NT 10.0; Win64; x64) AppleWebKit/537.36 (KHTML, like Gecko) Chrome/88.0.4324.104 Safari/537.36" etag="kLsN7u_Kap10QhnItawU" version="13.10.9" type="github">
  <diagram id="prtHgNgQTEPvFCAcTncT" name="Page-1">
    <mxGraphModel dx="1865" dy="548" grid="1" gridSize="10" guides="1" tooltips="1" connect="1" arrows="1" fold="1" page="1" pageScale="1" pageWidth="827" pageHeight="1169" math="0" shadow="0">
      <root>
        <mxCell id="0" />
        <mxCell id="1" parent="0" />
        <mxCell id="RHKaxDPYzU8uJI3e0PNz-3" value="" style="rounded=0;whiteSpace=wrap;html=1;shadow=0;glass=0;sketch=1;strokeColor=#ae4132;fillColor=#fad9d5;" vertex="1" parent="1">
          <mxGeometry x="100" y="80" width="60" height="60" as="geometry" />
        </mxCell>
        <mxCell id="RHKaxDPYzU8uJI3e0PNz-7" value="" style="rounded=0;whiteSpace=wrap;html=1;shadow=0;glass=0;sketch=1;fillColor=#1ba1e2;strokeColor=#006EAF;fontColor=#ffffff;" vertex="1" parent="1">
          <mxGeometry x="40" y="80" width="60" height="60" as="geometry" />
        </mxCell>
        <mxCell id="RHKaxDPYzU8uJI3e0PNz-8" value="val" style="text;html=1;align=center;verticalAlign=middle;resizable=0;points=[];autosize=1;rounded=1;sketch=1;fillStyle=zigzag;fillColor=#ffffff;glass=0;shadow=0;fontStyle=0;fontSize=16;" vertex="1" parent="1">
          <mxGeometry x="50" y="100" width="40" height="20" as="geometry" />
        </mxCell>
        <mxCell id="RHKaxDPYzU8uJI3e0PNz-9" value="next" style="text;html=1;strokeColor=none;align=center;verticalAlign=middle;whiteSpace=wrap;rounded=0;shadow=0;glass=0;sketch=1;fontSize=16;fillColor=#ffffff;fillStyle=zigzag;" vertex="1" parent="1">
          <mxGeometry x="110" y="100" width="40" height="20" as="geometry" />
        </mxCell>
        <mxCell id="RHKaxDPYzU8uJI3e0PNz-10" value="" style="rounded=0;whiteSpace=wrap;html=1;shadow=0;glass=0;sketch=1;strokeColor=#ae4132;fillColor=#fad9d5;" vertex="1" parent="1">
          <mxGeometry x="270" y="80" width="60" height="60" as="geometry" />
        </mxCell>
        <mxCell id="RHKaxDPYzU8uJI3e0PNz-11" value="" style="rounded=0;whiteSpace=wrap;html=1;shadow=0;glass=0;sketch=1;fillColor=#1ba1e2;strokeColor=#006EAF;fontColor=#ffffff;" vertex="1" parent="1">
          <mxGeometry x="210" y="80" width="60" height="60" as="geometry" />
        </mxCell>
        <mxCell id="RHKaxDPYzU8uJI3e0PNz-12" value="val" style="text;html=1;align=center;verticalAlign=middle;resizable=0;points=[];autosize=1;rounded=1;sketch=1;fillStyle=zigzag;fillColor=#ffffff;glass=0;shadow=0;fontStyle=0;fontSize=16;" vertex="1" parent="1">
          <mxGeometry x="220" y="100" width="40" height="20" as="geometry" />
        </mxCell>
        <mxCell id="RHKaxDPYzU8uJI3e0PNz-13" value="next" style="text;html=1;strokeColor=none;align=center;verticalAlign=middle;whiteSpace=wrap;rounded=0;shadow=0;glass=0;sketch=1;fontSize=16;fillColor=#ffffff;fillStyle=zigzag;" vertex="1" parent="1">
          <mxGeometry x="280" y="100" width="40" height="20" as="geometry" />
        </mxCell>
        <mxCell id="RHKaxDPYzU8uJI3e0PNz-14" value="" style="rounded=0;whiteSpace=wrap;html=1;shadow=0;glass=0;sketch=1;strokeColor=#ae4132;fillColor=#fad9d5;" vertex="1" parent="1">
          <mxGeometry x="440" y="80" width="60" height="60" as="geometry" />
        </mxCell>
        <mxCell id="RHKaxDPYzU8uJI3e0PNz-15" value="" style="rounded=0;whiteSpace=wrap;html=1;shadow=0;glass=0;sketch=1;fillColor=#1ba1e2;strokeColor=#006EAF;fontColor=#ffffff;" vertex="1" parent="1">
          <mxGeometry x="380" y="80" width="60" height="60" as="geometry" />
        </mxCell>
        <mxCell id="RHKaxDPYzU8uJI3e0PNz-16" value="val" style="text;html=1;align=center;verticalAlign=middle;resizable=0;points=[];autosize=1;rounded=1;sketch=1;fillStyle=zigzag;fillColor=#ffffff;glass=0;shadow=0;fontStyle=0;fontSize=16;" vertex="1" parent="1">
          <mxGeometry x="390" y="100" width="40" height="20" as="geometry" />
        </mxCell>
        <mxCell id="RHKaxDPYzU8uJI3e0PNz-17" value="next" style="text;html=1;strokeColor=none;align=center;verticalAlign=middle;whiteSpace=wrap;rounded=0;shadow=0;glass=0;sketch=1;fontSize=16;fillColor=#ffffff;fillStyle=zigzag;" vertex="1" parent="1">
          <mxGeometry x="450" y="100" width="40" height="20" as="geometry" />
        </mxCell>
        <mxCell id="RHKaxDPYzU8uJI3e0PNz-18" value="" style="rounded=0;whiteSpace=wrap;html=1;shadow=0;glass=0;sketch=1;strokeColor=#ae4132;fillColor=#fad9d5;" vertex="1" parent="1">
          <mxGeometry x="610" y="80" width="60" height="60" as="geometry" />
        </mxCell>
        <mxCell id="RHKaxDPYzU8uJI3e0PNz-19" value="" style="rounded=0;whiteSpace=wrap;html=1;shadow=0;glass=0;sketch=1;fillColor=#1ba1e2;strokeColor=#006EAF;fontColor=#ffffff;" vertex="1" parent="1">
          <mxGeometry x="550" y="80" width="60" height="60" as="geometry" />
        </mxCell>
        <mxCell id="RHKaxDPYzU8uJI3e0PNz-20" value="val" style="text;html=1;align=center;verticalAlign=middle;resizable=0;points=[];autosize=1;rounded=1;sketch=1;fillStyle=zigzag;fillColor=#ffffff;glass=0;shadow=0;fontStyle=0;fontSize=16;" vertex="1" parent="1">
          <mxGeometry x="560" y="100" width="40" height="20" as="geometry" />
        </mxCell>
        <mxCell id="RHKaxDPYzU8uJI3e0PNz-21" value="next" style="text;html=1;strokeColor=none;align=center;verticalAlign=middle;whiteSpace=wrap;rounded=0;shadow=0;glass=0;sketch=1;fontSize=16;fillColor=#ffffff;fillStyle=zigzag;" vertex="1" parent="1">
          <mxGeometry x="620" y="100" width="40" height="20" as="geometry" />
        </mxCell>
        <mxCell id="RHKaxDPYzU8uJI3e0PNz-22" value="" style="endArrow=classic;html=1;fontSize=16;sketch=1;" edge="1" parent="1">
          <mxGeometry width="50" height="50" relative="1" as="geometry">
            <mxPoint x="150" y="109.5" as="sourcePoint" />
            <mxPoint x="220" y="109.5" as="targetPoint" />
          </mxGeometry>
        </mxCell>
        <mxCell id="RHKaxDPYzU8uJI3e0PNz-23" value="" style="endArrow=classic;html=1;fontSize=16;sketch=1;" edge="1" parent="1">
          <mxGeometry width="50" height="50" relative="1" as="geometry">
            <mxPoint x="320" y="109.5" as="sourcePoint" />
            <mxPoint x="390" y="109.5" as="targetPoint" />
          </mxGeometry>
        </mxCell>
        <mxCell id="RHKaxDPYzU8uJI3e0PNz-24" value="" style="endArrow=classic;html=1;fontSize=16;sketch=1;" edge="1" parent="1">
          <mxGeometry width="50" height="50" relative="1" as="geometry">
            <mxPoint x="490" y="109.5" as="sourcePoint" />
            <mxPoint x="560" y="109.5" as="targetPoint" />
          </mxGeometry>
        </mxCell>
        <mxCell id="RHKaxDPYzU8uJI3e0PNz-25" value="" style="endArrow=classic;html=1;fontSize=16;sketch=1;" edge="1" parent="1">
          <mxGeometry width="50" height="50" relative="1" as="geometry">
            <mxPoint x="660" y="109.5" as="sourcePoint" />
            <mxPoint x="730" y="109.5" as="targetPoint" />
          </mxGeometry>
        </mxCell>
        <mxCell id="RHKaxDPYzU8uJI3e0PNz-26" value="NULL" style="text;html=1;align=center;verticalAlign=middle;resizable=0;points=[];autosize=1;fontSize=16;" vertex="1" parent="1">
          <mxGeometry x="730" y="100" width="60" height="20" as="geometry" />
        </mxCell>
        <mxCell id="RHKaxDPYzU8uJI3e0PNz-27" value="Head" style="text;html=1;align=center;verticalAlign=middle;resizable=0;points=[];autosize=1;fontSize=16;sketch=1;rounded=0;fillColor=#ffffff;" vertex="1" parent="1">
          <mxGeometry x="76" y="48" width="50" height="20" as="geometry" />
        </mxCell>
        <mxCell id="RHKaxDPYzU8uJI3e0PNz-29" value="" style="rounded=0;whiteSpace=wrap;html=1;shadow=0;glass=0;sketch=1;strokeColor=#ae4132;fillColor=#fad9d5;" vertex="1" parent="1">
          <mxGeometry x="160" y="210" width="60" height="60" as="geometry" />
        </mxCell>
        <mxCell id="RHKaxDPYzU8uJI3e0PNz-30" value="" style="rounded=0;whiteSpace=wrap;html=1;shadow=0;glass=0;sketch=1;fillColor=#1ba1e2;strokeColor=#006EAF;fontColor=#ffffff;" vertex="1" parent="1">
          <mxGeometry x="100" y="210" width="60" height="60" as="geometry" />
        </mxCell>
        <mxCell id="RHKaxDPYzU8uJI3e0PNz-31" value="val" style="text;html=1;align=center;verticalAlign=middle;resizable=0;points=[];autosize=1;rounded=1;sketch=1;fillStyle=zigzag;fillColor=#ffffff;glass=0;shadow=0;fontStyle=0;fontSize=16;" vertex="1" parent="1">
          <mxGeometry x="110" y="230" width="40" height="20" as="geometry" />
        </mxCell>
        <mxCell id="RHKaxDPYzU8uJI3e0PNz-32" value="next" style="text;html=1;strokeColor=none;align=center;verticalAlign=middle;whiteSpace=wrap;rounded=0;shadow=0;glass=0;sketch=1;fontSize=16;fillColor=#ffffff;fillStyle=zigzag;" vertex="1" parent="1">
          <mxGeometry x="170" y="230" width="40" height="20" as="geometry" />
        </mxCell>
        <mxCell id="RHKaxDPYzU8uJI3e0PNz-33" value="" style="rounded=0;whiteSpace=wrap;html=1;sketch=1;fillColor=#e1d5e7;strokeColor=#9673a6;" vertex="1" parent="1">
          <mxGeometry x="40" y="210" width="60" height="60" as="geometry" />
        </mxCell>
        <mxCell id="RHKaxDPYzU8uJI3e0PNz-34" value="prev" style="text;html=1;strokeColor=none;align=center;verticalAlign=middle;whiteSpace=wrap;rounded=0;shadow=0;glass=0;sketch=1;fontSize=16;fillColor=#ffffff;fillStyle=zigzag;" vertex="1" parent="1">
          <mxGeometry x="50" y="230" width="40" height="20" as="geometry" />
        </mxCell>
        <mxCell id="RHKaxDPYzU8uJI3e0PNz-35" value="" style="rounded=0;whiteSpace=wrap;html=1;shadow=0;glass=0;sketch=1;strokeColor=#ae4132;fillColor=#fad9d5;" vertex="1" parent="1">
          <mxGeometry x="400" y="210" width="60" height="60" as="geometry" />
        </mxCell>
        <mxCell id="RHKaxDPYzU8uJI3e0PNz-36" value="" style="rounded=0;whiteSpace=wrap;html=1;shadow=0;glass=0;sketch=1;fillColor=#1ba1e2;strokeColor=#006EAF;fontColor=#ffffff;" vertex="1" parent="1">
          <mxGeometry x="340" y="210" width="60" height="60" as="geometry" />
        </mxCell>
        <mxCell id="RHKaxDPYzU8uJI3e0PNz-37" value="val" style="text;html=1;align=center;verticalAlign=middle;resizable=0;points=[];autosize=1;rounded=1;sketch=1;fillStyle=zigzag;fillColor=#ffffff;glass=0;shadow=0;fontStyle=0;fontSize=16;" vertex="1" parent="1">
          <mxGeometry x="350" y="230" width="40" height="20" as="geometry" />
        </mxCell>
        <mxCell id="RHKaxDPYzU8uJI3e0PNz-38" value="next" style="text;html=1;strokeColor=none;align=center;verticalAlign=middle;whiteSpace=wrap;rounded=0;shadow=0;glass=0;sketch=1;fontSize=16;fillColor=#ffffff;fillStyle=zigzag;" vertex="1" parent="1">
          <mxGeometry x="410" y="230" width="40" height="20" as="geometry" />
        </mxCell>
        <mxCell id="RHKaxDPYzU8uJI3e0PNz-39" value="" style="rounded=0;whiteSpace=wrap;html=1;sketch=1;fillColor=#e1d5e7;strokeColor=#9673a6;" vertex="1" parent="1">
          <mxGeometry x="280" y="210" width="60" height="60" as="geometry" />
        </mxCell>
        <mxCell id="RHKaxDPYzU8uJI3e0PNz-40" value="prev" style="text;html=1;strokeColor=none;align=center;verticalAlign=middle;whiteSpace=wrap;rounded=0;shadow=0;glass=0;sketch=1;fontSize=16;fillColor=#ffffff;fillStyle=zigzag;" vertex="1" parent="1">
          <mxGeometry x="290" y="230" width="40" height="20" as="geometry" />
        </mxCell>
        <mxCell id="RHKaxDPYzU8uJI3e0PNz-41" value="" style="rounded=0;whiteSpace=wrap;html=1;shadow=0;glass=0;sketch=1;strokeColor=#ae4132;fillColor=#fad9d5;" vertex="1" parent="1">
          <mxGeometry x="640" y="210" width="60" height="60" as="geometry" />
        </mxCell>
        <mxCell id="RHKaxDPYzU8uJI3e0PNz-42" value="" style="rounded=0;whiteSpace=wrap;html=1;shadow=0;glass=0;sketch=1;fillColor=#1ba1e2;strokeColor=#006EAF;fontColor=#ffffff;" vertex="1" parent="1">
          <mxGeometry x="580" y="210" width="60" height="60" as="geometry" />
        </mxCell>
        <mxCell id="RHKaxDPYzU8uJI3e0PNz-43" value="val" style="text;html=1;align=center;verticalAlign=middle;resizable=0;points=[];autosize=1;rounded=1;sketch=1;fillStyle=zigzag;fillColor=#ffffff;glass=0;shadow=0;fontStyle=0;fontSize=16;" vertex="1" parent="1">
          <mxGeometry x="590" y="230" width="40" height="20" as="geometry" />
        </mxCell>
        <mxCell id="RHKaxDPYzU8uJI3e0PNz-44" value="next" style="text;html=1;strokeColor=none;align=center;verticalAlign=middle;whiteSpace=wrap;rounded=0;shadow=0;glass=0;sketch=1;fontSize=16;fillColor=#ffffff;fillStyle=zigzag;" vertex="1" parent="1">
          <mxGeometry x="650" y="230" width="40" height="20" as="geometry" />
        </mxCell>
        <mxCell id="RHKaxDPYzU8uJI3e0PNz-45" value="" style="rounded=0;whiteSpace=wrap;html=1;sketch=1;fillColor=#e1d5e7;strokeColor=#9673a6;" vertex="1" parent="1">
          <mxGeometry x="520" y="210" width="60" height="60" as="geometry" />
        </mxCell>
        <mxCell id="RHKaxDPYzU8uJI3e0PNz-46" value="prev" style="text;html=1;strokeColor=none;align=center;verticalAlign=middle;whiteSpace=wrap;rounded=0;shadow=0;glass=0;sketch=1;fontSize=16;fillColor=#ffffff;fillStyle=zigzag;" vertex="1" parent="1">
          <mxGeometry x="530" y="230" width="40" height="20" as="geometry" />
        </mxCell>
        <mxCell id="RHKaxDPYzU8uJI3e0PNz-47" value="NULL" style="text;html=1;align=center;verticalAlign=middle;resizable=0;points=[];autosize=1;fontSize=16;" vertex="1" parent="1">
          <mxGeometry x="-70" y="250" width="60" height="20" as="geometry" />
        </mxCell>
        <mxCell id="RHKaxDPYzU8uJI3e0PNz-48" value="NULL" style="text;html=1;align=center;verticalAlign=middle;resizable=0;points=[];autosize=1;fontSize=16;" vertex="1" parent="1">
          <mxGeometry x="750" y="220" width="60" height="20" as="geometry" />
        </mxCell>
        <mxCell id="RHKaxDPYzU8uJI3e0PNz-49" value="" style="endArrow=classic;html=1;fontSize=16;sketch=1;" edge="1" parent="1">
          <mxGeometry width="50" height="50" relative="1" as="geometry">
            <mxPoint x="200" y="229" as="sourcePoint" />
            <mxPoint x="270" y="229" as="targetPoint" />
          </mxGeometry>
        </mxCell>
        <mxCell id="RHKaxDPYzU8uJI3e0PNz-50" value="" style="endArrow=classic;html=1;fontSize=16;sketch=1;" edge="1" parent="1">
          <mxGeometry width="50" height="50" relative="1" as="geometry">
            <mxPoint x="440" y="229" as="sourcePoint" />
            <mxPoint x="510" y="229" as="targetPoint" />
          </mxGeometry>
        </mxCell>
        <mxCell id="RHKaxDPYzU8uJI3e0PNz-52" value="" style="endArrow=classic;html=1;strokeWidth=1;sketch=1;endSize=6;" edge="1" parent="1">
          <mxGeometry width="50" height="50" relative="1" as="geometry">
            <mxPoint x="300" y="259.5" as="sourcePoint" />
            <mxPoint x="230" y="259.5" as="targetPoint" />
          </mxGeometry>
        </mxCell>
        <mxCell id="RHKaxDPYzU8uJI3e0PNz-53" value="" style="endArrow=classic;html=1;strokeWidth=1;sketch=1;endSize=6;" edge="1" parent="1">
          <mxGeometry width="50" height="50" relative="1" as="geometry">
            <mxPoint x="540" y="259.5" as="sourcePoint" />
            <mxPoint x="470" y="259.5" as="targetPoint" />
          </mxGeometry>
        </mxCell>
        <mxCell id="RHKaxDPYzU8uJI3e0PNz-54" value="" style="endArrow=classic;html=1;strokeWidth=1;sketch=1;endSize=6;" edge="1" parent="1">
          <mxGeometry width="50" height="50" relative="1" as="geometry">
            <mxPoint x="60" y="259.5" as="sourcePoint" />
            <mxPoint x="-10" y="259.5" as="targetPoint" />
          </mxGeometry>
        </mxCell>
        <mxCell id="RHKaxDPYzU8uJI3e0PNz-55" value="" style="endArrow=classic;html=1;fontSize=16;sketch=1;" edge="1" parent="1">
          <mxGeometry width="50" height="50" relative="1" as="geometry">
            <mxPoint x="680" y="229" as="sourcePoint" />
            <mxPoint x="750" y="229" as="targetPoint" />
          </mxGeometry>
        </mxCell>
      </root>
    </mxGraphModel>
  </diagram>
</mxfile>
